<svg width="159" height="529" viewBox="0 0 159 529" fill="none" xmlns="http://www.w3.org/2000/svg">
<g filter="url(#filter0_f_105147_4397)">
<path d="M-322.127 52.031C-361.906 56.0626 -148.163 332.604 -148.163 332.604C-148.163 332.604 -76.6534 363.801 -21.1814 397.762C-35.251 439.145 -6.43277 494.494 32.9335 472.254C60.5559 456.648 25.3231 426.233 -21.1814 397.762C-13.6028 375.471 6.41977 357.232 43.9405 357.354C151.118 357.703 91.0855 294.249 91.0855 294.249C91.0855 294.249 45.0099 259.821 46.7579 220.605L46.7735 220.256C48.5082 181.371 48.6472 178.256 -107.467 141.849C-264.048 105.334 -282.348 47.9993 -322.127 52.031Z" fill="#70E61C"/>
</g>
<defs>
<filter id="filter0_f_105147_4397" x="-378.062" y="0.829346" width="536.906" height="527.517" filterUnits="userSpaceOnUse" color-interpolation-filters="sRGB">
<feFlood flood-opacity="0" result="BackgroundImageFix"/>
<feBlend mode="normal" in="SourceGraphic" in2="BackgroundImageFix" result="shape"/>
<feGaussianBlur stdDeviation="25.5" result="effect1_foregroundBlur_105147_4397"/>
</filter>
</defs>
</svg>
