<svg width="102" height="113" viewBox="0 0 102 113" fill="none" xmlns="http://www.w3.org/2000/svg">
<g filter="url(#filter0_d_105147_4807)">
<path d="M18.1001 12C36.7127 12 55.2875 12 73.9001 12C73.9001 32.0135 73.9001 52.027 73.9001 72C55.3252 72 36.7127 72 18.1001 72C18.1001 51.946 18.1001 31.973 18.1001 12ZM68.0224 43.7623C66.8921 41.5746 65.3474 40.0756 63.1244 39.549C61.542 39.1438 59.9595 39.1438 58.3771 39.5084C53.253 40.6428 51.0677 47.287 54.3833 51.7029C55.5513 53.2424 57.096 54.1742 58.7162 54.9845C60.1479 55.7137 61.6173 56.4024 63.049 57.1722C64.0287 57.6988 64.4431 58.6712 64.3301 59.846C64.217 61.0209 63.4635 61.6691 62.5216 62.0338C60.4116 62.844 57.9626 62.1148 56.5309 60.2107C56.2295 59.8055 55.9281 59.3599 55.6266 58.9142C54.1949 59.8055 52.8008 60.6563 51.4068 61.5476C52.2734 63.3707 53.479 64.8292 55.1368 65.8015C57.9626 67.4625 60.9391 67.7056 63.991 66.8953C65.9879 66.3687 67.6833 65.2748 68.7383 63.2897C70.6975 59.5219 69.5672 54.8224 66.1009 52.5132C64.5561 51.5003 62.823 50.8116 61.2029 49.9203C60.4116 49.4747 59.5827 49.0695 58.9045 48.5024C57.6989 47.449 57.9249 45.3423 59.2813 44.5321C60.6 43.7218 62.4462 44.208 63.4635 45.6259C63.6896 45.9095 63.8403 46.2336 64.0663 46.5577C65.3474 45.6259 66.6661 44.6941 68.0224 43.7623ZM32.7942 62.1553C33.5478 63.8974 34.6404 65.2748 36.1852 66.1661C38.1821 67.341 40.3673 67.5435 42.5903 67.1789C44.5872 66.8548 46.245 65.8825 47.3376 63.9379C48.2419 62.3173 48.5056 60.5348 48.5056 58.6306C48.5056 52.4726 48.5056 46.3147 48.5056 40.1566C48.5056 39.9946 48.5056 39.792 48.5056 39.5895C46.7348 39.5895 45.0393 39.5895 43.2685 39.5895C43.2685 39.8325 43.2685 40.0351 43.2685 40.2782C43.2685 46.3552 43.2685 52.3916 43.2685 58.4686C43.2685 59.0358 43.2308 59.6435 43.1555 60.2107C43.0048 61.1425 42.5526 61.8312 41.6861 62.1148C40.0659 62.6415 38.7472 62.1148 37.8053 60.6158C37.5792 60.2107 37.3532 59.8055 37.0894 59.4004C35.62 60.3322 34.226 61.2235 32.7942 62.1553Z" fill="white"/>
<path d="M9.31325 85.768V93.416C9.31325 94.6 8.97725 95.512 8.30525 96.152C7.64392 96.792 6.74792 97.112 5.61725 97.112C4.43325 97.112 3.48392 96.776 2.76925 96.104C2.05458 95.432 1.69725 94.4773 1.69725 93.24H4.41725C4.41725 93.7093 4.51325 94.0667 4.70525 94.312C4.89725 94.5467 5.17458 94.664 5.53725 94.664C5.86792 94.664 6.12392 94.5573 6.30525 94.344C6.48658 94.1307 6.57725 93.8213 6.57725 93.416V85.768H9.31325ZM10.9793 92.52C10.9793 91.6027 11.1499 90.7973 11.4913 90.104C11.8433 89.4107 12.3179 88.8773 12.9153 88.504C13.5126 88.1307 14.1793 87.944 14.9153 87.944C15.5446 87.944 16.0939 88.072 16.5633 88.328C17.0433 88.584 17.4113 88.92 17.6673 89.336V88.072H20.4033V97H17.6673V95.736C17.4006 96.152 17.0273 96.488 16.5473 96.744C16.0779 97 15.5286 97.128 14.8993 97.128C14.1739 97.128 13.5126 96.9413 12.9153 96.568C12.3179 96.184 11.8433 95.6453 11.4913 94.952C11.1499 94.248 10.9793 93.4373 10.9793 92.52ZM17.6673 92.536C17.6673 91.8533 17.4753 91.3147 17.0913 90.92C16.7179 90.5253 16.2593 90.328 15.7153 90.328C15.1713 90.328 14.7073 90.5253 14.3233 90.92C13.9499 91.304 13.7633 91.8373 13.7633 92.52C13.7633 93.2027 13.9499 93.7467 14.3233 94.152C14.7073 94.5467 15.1713 94.744 15.7153 94.744C16.2593 94.744 16.7179 94.5467 17.0913 94.152C17.4753 93.7573 17.6673 93.2187 17.6673 92.536ZM26.3986 94.44L28.3346 88.072H31.2466L28.0786 97H24.7026L21.5346 88.072H24.4626L26.3986 94.44ZM31.8543 92.52C31.8543 91.6027 32.0249 90.7973 32.3663 90.104C32.7183 89.4107 33.1929 88.8773 33.7903 88.504C34.3876 88.1307 35.0543 87.944 35.7903 87.944C36.4196 87.944 36.9689 88.072 37.4383 88.328C37.9183 88.584 38.2863 88.92 38.5423 89.336V88.072H41.2783V97H38.5423V95.736C38.2756 96.152 37.9023 96.488 37.4223 96.744C36.9529 97 36.4036 97.128 35.7743 97.128C35.0489 97.128 34.3876 96.9413 33.7903 96.568C33.1929 96.184 32.7183 95.6453 32.3663 94.952C32.0249 94.248 31.8543 93.4373 31.8543 92.52ZM38.5423 92.536C38.5423 91.8533 38.3503 91.3147 37.9663 90.92C37.5929 90.5253 37.1343 90.328 36.5903 90.328C36.0463 90.328 35.5823 90.5253 35.1983 90.92C34.8249 91.304 34.6383 91.8373 34.6383 92.52C34.6383 93.2027 34.8249 93.7467 35.1983 94.152C35.5823 94.5467 36.0463 94.744 36.5903 94.744C37.1343 94.744 37.5929 94.5467 37.9663 94.152C38.3503 93.7573 38.5423 93.2187 38.5423 92.536ZM47.3216 97.112C46.5003 97.112 45.7643 96.9787 45.1136 96.712C44.463 96.4453 43.9403 96.0507 43.5456 95.528C43.1616 95.0053 42.959 94.376 42.9376 93.64H45.8496C45.8923 94.056 46.0363 94.376 46.2816 94.6C46.527 94.8133 46.847 94.92 47.2416 94.92C47.647 94.92 47.967 94.8293 48.2016 94.648C48.4363 94.456 48.5536 94.1947 48.5536 93.864C48.5536 93.5867 48.4576 93.3573 48.2656 93.176C48.0843 92.9947 47.855 92.8453 47.5776 92.728C47.311 92.6107 46.927 92.4773 46.4256 92.328C45.7003 92.104 45.1083 91.88 44.6496 91.656C44.191 91.432 43.7963 91.1013 43.4656 90.664C43.135 90.2267 42.9696 89.656 42.9696 88.952C42.9696 87.9067 43.3483 87.0907 44.1056 86.504C44.863 85.9067 45.8496 85.608 47.0656 85.608C48.303 85.608 49.3003 85.9067 50.0576 86.504C50.815 87.0907 51.2203 87.912 51.2736 88.968H48.3136C48.2923 88.6053 48.159 88.3227 47.9136 88.12C47.6683 87.9067 47.3536 87.8 46.9696 87.8C46.639 87.8 46.3723 87.8907 46.1696 88.072C45.967 88.2427 45.8656 88.4933 45.8656 88.824C45.8656 89.1867 46.0363 89.4693 46.3776 89.672C46.719 89.8747 47.2523 90.0933 47.9776 90.328C48.703 90.5733 49.2896 90.808 49.7376 91.032C50.1963 91.256 50.591 91.5813 50.9216 92.008C51.2523 92.4347 51.4176 92.984 51.4176 93.656C51.4176 94.296 51.2523 94.8773 50.9216 95.4C50.6016 95.9227 50.1323 96.3387 49.5136 96.648C48.895 96.9573 48.1643 97.112 47.3216 97.112ZM52.5574 92.536C52.5574 91.608 52.744 90.7973 53.1174 90.104C53.5014 89.4107 54.0294 88.8773 54.7014 88.504C55.384 88.1307 56.1627 87.944 57.0374 87.944C58.1574 87.944 59.0907 88.2373 59.8374 88.824C60.5947 89.4107 61.0907 90.2373 61.3254 91.304H58.4134C58.168 90.6213 57.6934 90.28 56.9894 90.28C56.488 90.28 56.088 90.4773 55.7894 90.872C55.4907 91.256 55.3414 91.8107 55.3414 92.536C55.3414 93.2613 55.4907 93.8213 55.7894 94.216C56.088 94.6 56.488 94.792 56.9894 94.792C57.6934 94.792 58.168 94.4507 58.4134 93.768H61.3254C61.0907 94.8133 60.5947 95.6347 59.8374 96.232C59.08 96.8293 58.1467 97.128 57.0374 97.128C56.1627 97.128 55.384 96.9413 54.7014 96.568C54.0294 96.1947 53.5014 95.6613 53.1174 94.968C52.744 94.2747 52.5574 93.464 52.5574 92.536ZM65.5249 89.56C65.8449 89.0693 66.2449 88.6853 66.7249 88.408C67.2049 88.12 67.7382 87.976 68.3249 87.976V90.872H67.5729C66.8902 90.872 66.3782 91.0213 66.0369 91.32C65.6955 91.608 65.5249 92.12 65.5249 92.856V97H62.7889V88.072H65.5249V89.56ZM71.0086 87.144C70.5286 87.144 70.134 87.0053 69.8246 86.728C69.526 86.44 69.3766 86.088 69.3766 85.672C69.3766 85.2453 69.526 84.8933 69.8246 84.616C70.134 84.328 70.5286 84.184 71.0086 84.184C71.478 84.184 71.862 84.328 72.1606 84.616C72.47 84.8933 72.6246 85.2453 72.6246 85.672C72.6246 86.088 72.47 86.44 72.1606 86.728C71.862 87.0053 71.478 87.144 71.0086 87.144ZM72.3686 88.072V97H69.6326V88.072H72.3686ZM77.0874 89.336C77.354 88.92 77.722 88.584 78.1914 88.328C78.6607 88.072 79.21 87.944 79.8394 87.944C80.5754 87.944 81.242 88.1307 81.8394 88.504C82.4367 88.8773 82.906 89.4107 83.2474 90.104C83.5994 90.7973 83.7754 91.6027 83.7754 92.52C83.7754 93.4373 83.5994 94.248 83.2474 94.952C82.906 95.6453 82.4367 96.184 81.8394 96.568C81.242 96.9413 80.5754 97.128 79.8394 97.128C79.2207 97.128 78.6714 97 78.1914 96.744C77.722 96.488 77.354 96.1573 77.0874 95.752V101.256H74.3514V88.072H77.0874V89.336ZM80.9914 92.52C80.9914 91.8373 80.7994 91.304 80.4154 90.92C80.042 90.5253 79.578 90.328 79.0234 90.328C78.4794 90.328 78.0154 90.5253 77.6314 90.92C77.258 91.3147 77.0714 91.8533 77.0714 92.536C77.0714 93.2187 77.258 93.7573 77.6314 94.152C78.0154 94.5467 78.4794 94.744 79.0234 94.744C79.5674 94.744 80.0314 94.5467 80.4154 94.152C80.7994 93.7467 80.9914 93.2027 80.9914 92.52ZM90.1868 94.68V97H88.7948C87.8028 97 87.0294 96.76 86.4748 96.28C85.9201 95.7893 85.6428 94.9947 85.6428 93.896V90.344H84.5548V88.072H85.6428V85.896H88.3788V88.072H90.1708V90.344H88.3788V93.928C88.3788 94.1947 88.4428 94.3867 88.5708 94.504C88.6988 94.6213 88.9121 94.68 89.2108 94.68H90.1868Z" fill="white"/>
</g>
<defs>
<filter id="filter0_d_105147_4807" x="0.697266" y="-1" width="100.49" height="113.256" filterUnits="userSpaceOnUse" color-interpolation-filters="sRGB">
<feFlood flood-opacity="0" result="BackgroundImageFix"/>
<feColorMatrix in="SourceAlpha" type="matrix" values="0 0 0 0 0 0 0 0 0 0 0 0 0 0 0 0 0 0 127 0" result="hardAlpha"/>
<feOffset dx="5" dy="5"/>
<feGaussianBlur stdDeviation="3"/>
<feComposite in2="hardAlpha" operator="out"/>
<feColorMatrix type="matrix" values="0 0 0 0 0 0 0 0 0 0 0 0 0 0 0 0 0 0 0.25 0"/>
<feBlend mode="normal" in2="BackgroundImageFix" result="effect1_dropShadow_105147_4807"/>
<feBlend mode="normal" in="SourceGraphic" in2="effect1_dropShadow_105147_4807" result="shape"/>
</filter>
</defs>
</svg>
