<svg width="88" height="130" viewBox="0 0 88 130" fill="none" xmlns="http://www.w3.org/2000/svg">
<g filter="url(#filter0_d_105147_4805)">
<g clip-path="url(#clip0_105147_4805)">
<path d="M21.9 21.8V62.3C17 56.9 14 49.8 14 42C14 34.2 17 27.1 21.9 21.8Z" fill="white"/>
<path d="M25.1001 26.2L42.4001 60.9H25.1001V26.2Z" fill="white"/>
<path d="M44 57L27 23.1H61L44 57Z" fill="white"/>
<path d="M44 12C51.8 12 58.9001 15 64.2001 19.9H23.8C29.1 15 36.2 12 44 12Z" fill="white"/>
<path d="M62.9001 60.9H45.6001L62.9001 26.2V60.9Z" fill="white"/>
<path d="M64.2001 64.1C58.9001 69 51.8 72 44 72C36.2 72 29.1 69 23.8 64.1H64.2001Z" fill="white"/>
<path d="M66.1001 62.2V21.8C71.0001 27.1 74.0001 34.2 74.0001 42C74.0001 49.8 71.0001 56.9 66.1001 62.2Z" fill="white"/>
<path d="M25.1001 26.2L42.4001 60.9H25.1001V26.2Z" fill="white"/>
<path d="M44 57L27 23.1H61L44 57Z" fill="white"/>
<path d="M45.6001 60.9L62.9001 26.2V60.9H45.6001Z" fill="white"/>
<path d="M27 23.1H61L44 57L27 23.1Z" fill="white"/>
</g>
<path d="M21.4933 85.768V97H18.7573V90.264L16.2453 97H14.0373L11.5093 90.248V97H8.77325V85.768H12.0052L15.1573 93.544L18.2773 85.768H21.4933ZM22.9168 92.52C22.9168 91.6027 23.0874 90.7973 23.4288 90.104C23.7808 89.4107 24.2554 88.8773 24.8528 88.504C25.4501 88.1307 26.1168 87.944 26.8528 87.944C27.4821 87.944 28.0314 88.072 28.5008 88.328C28.9808 88.584 29.3488 88.92 29.6048 89.336V88.072H32.3408V97H29.6048V95.736C29.3381 96.152 28.9648 96.488 28.4848 96.744C28.0154 97 27.4661 97.128 26.8368 97.128C26.1114 97.128 25.4501 96.9413 24.8528 96.568C24.2554 96.184 23.7808 95.6453 23.4288 94.952C23.0874 94.248 22.9168 93.4373 22.9168 92.52ZM29.6048 92.536C29.6048 91.8533 29.4128 91.3147 29.0288 90.92C28.6554 90.5253 28.1968 90.328 27.6528 90.328C27.1088 90.328 26.6448 90.5253 26.2608 90.92C25.8874 91.304 25.7008 91.8373 25.7008 92.52C25.7008 93.2027 25.8874 93.7467 26.2608 94.152C26.6448 94.5467 27.1088 94.744 27.6528 94.744C28.1968 94.744 28.6554 94.5467 29.0288 94.152C29.4128 93.7573 29.6048 93.2187 29.6048 92.536ZM39.2961 94.68V97H37.9041C36.9121 97 36.1388 96.76 35.5841 96.28C35.0295 95.7893 34.7521 94.9947 34.7521 93.896V90.344H33.6641V88.072H34.7521V85.896H37.4881V88.072H39.2801V90.344H37.4881V93.928C37.4881 94.1947 37.5521 94.3867 37.6801 94.504C37.8081 94.6213 38.0215 94.68 38.3201 94.68H39.2961ZM49.2361 92.392C49.2361 92.648 49.2201 92.9147 49.1881 93.192H42.9961C43.0388 93.7467 43.2148 94.1733 43.5241 94.472C43.8441 94.76 44.2335 94.904 44.6921 94.904C45.3748 94.904 45.8495 94.616 46.1161 94.04H49.0281C48.8788 94.6267 48.6068 95.1547 48.2121 95.624C47.8281 96.0933 47.3428 96.4613 46.7561 96.728C46.1695 96.9947 45.5135 97.128 44.7881 97.128C43.9135 97.128 43.1348 96.9413 42.4521 96.568C41.7695 96.1947 41.2361 95.6613 40.8521 94.968C40.4681 94.2747 40.2761 93.464 40.2761 92.536C40.2761 91.608 40.4628 90.7973 40.8361 90.104C41.2201 89.4107 41.7535 88.8773 42.4361 88.504C43.1188 88.1307 43.9028 87.944 44.7881 87.944C45.6521 87.944 46.4201 88.1253 47.0921 88.488C47.7641 88.8507 48.2868 89.368 48.6601 90.04C49.0441 90.712 49.2361 91.496 49.2361 92.392ZM46.4361 91.672C46.4361 91.2027 46.2761 90.8293 45.9561 90.552C45.6361 90.2747 45.2361 90.136 44.7561 90.136C44.2975 90.136 43.9081 90.2693 43.5881 90.536C43.2788 90.8027 43.0868 91.1813 43.0121 91.672H46.4361ZM53.4155 89.56C53.7355 89.0693 54.1355 88.6853 54.6155 88.408C55.0955 88.12 55.6288 87.976 56.2155 87.976V90.872H55.4635C54.7808 90.872 54.2688 91.0213 53.9275 91.32C53.5862 91.608 53.4155 92.12 53.4155 92.856V97H50.6795V88.072H53.4155V89.56ZM58.8993 87.144C58.4193 87.144 58.0246 87.0053 57.7153 86.728C57.4166 86.44 57.2673 86.088 57.2673 85.672C57.2673 85.2453 57.4166 84.8933 57.7153 84.616C58.0246 84.328 58.4193 84.184 58.8993 84.184C59.3686 84.184 59.7526 84.328 60.0513 84.616C60.3606 84.8933 60.5153 85.2453 60.5153 85.672C60.5153 86.088 60.3606 86.44 60.0513 86.728C59.7526 87.0053 59.3686 87.144 58.8993 87.144ZM60.2593 88.072V97H57.5233V88.072H60.2593ZM61.698 92.52C61.698 91.6027 61.8687 90.7973 62.21 90.104C62.562 89.4107 63.0367 88.8773 63.634 88.504C64.2313 88.1307 64.898 87.944 65.634 87.944C66.2633 87.944 66.8127 88.072 67.282 88.328C67.762 88.584 68.13 88.92 68.386 89.336V88.072H71.122V97H68.386V95.736C68.1193 96.152 67.746 96.488 67.266 96.744C66.7967 97 66.2473 97.128 65.618 97.128C64.8927 97.128 64.2313 96.9413 63.634 96.568C63.0367 96.184 62.562 95.6453 62.21 94.952C61.8687 94.248 61.698 93.4373 61.698 92.52ZM68.386 92.536C68.386 91.8533 68.194 91.3147 67.81 90.92C67.4367 90.5253 66.978 90.328 66.434 90.328C65.89 90.328 65.426 90.5253 65.042 90.92C64.6687 91.304 64.482 91.8373 64.482 92.52C64.482 93.2027 64.6687 93.7467 65.042 94.152C65.426 94.5467 65.89 94.744 66.434 94.744C66.978 94.744 67.4367 94.5467 67.81 94.152C68.194 93.7573 68.386 93.2187 68.386 92.536ZM75.8374 85.16V97H73.1014V85.16H75.8374ZM16.448 111.52C16.448 110.603 16.6187 109.797 16.96 109.104C17.312 108.411 17.7867 107.877 18.384 107.504C18.9813 107.131 19.648 106.944 20.384 106.944C20.9707 106.944 21.504 107.067 21.984 107.312C22.4747 107.557 22.8587 107.888 23.136 108.304V104.16H25.872V116H23.136V114.72C22.88 115.147 22.512 115.488 22.032 115.744C21.5627 116 21.0133 116.128 20.384 116.128C19.648 116.128 18.9813 115.941 18.384 115.568C17.7867 115.184 17.312 114.645 16.96 113.952C16.6187 113.248 16.448 112.437 16.448 111.52ZM23.136 111.536C23.136 110.853 22.944 110.315 22.56 109.92C22.1867 109.525 21.728 109.328 21.184 109.328C20.64 109.328 20.176 109.525 19.792 109.92C19.4187 110.304 19.232 110.837 19.232 111.52C19.232 112.203 19.4187 112.747 19.792 113.152C20.176 113.547 20.64 113.744 21.184 113.744C21.728 113.744 22.1867 113.547 22.56 113.152C22.944 112.757 23.136 112.219 23.136 111.536ZM36.2674 111.392C36.2674 111.648 36.2514 111.915 36.2194 112.192H30.0274C30.07 112.747 30.246 113.173 30.5554 113.472C30.8754 113.76 31.2647 113.904 31.7234 113.904C32.406 113.904 32.8807 113.616 33.1474 113.04H36.0594C35.91 113.627 35.638 114.155 35.2434 114.624C34.8594 115.093 34.374 115.461 33.7874 115.728C33.2007 115.995 32.5447 116.128 31.8194 116.128C30.9447 116.128 30.166 115.941 29.4834 115.568C28.8007 115.195 28.2674 114.661 27.8834 113.968C27.4994 113.275 27.3074 112.464 27.3074 111.536C27.3074 110.608 27.494 109.797 27.8674 109.104C28.2514 108.411 28.7847 107.877 29.4674 107.504C30.15 107.131 30.934 106.944 31.8194 106.944C32.6834 106.944 33.4514 107.125 34.1234 107.488C34.7954 107.851 35.318 108.368 35.6914 109.04C36.0754 109.712 36.2674 110.496 36.2674 111.392ZM33.4674 110.672C33.4674 110.203 33.3074 109.829 32.9874 109.552C32.6674 109.275 32.2674 109.136 31.7874 109.136C31.3287 109.136 30.9394 109.269 30.6194 109.536C30.31 109.803 30.118 110.181 30.0434 110.672H33.4674ZM41.3428 116.128C40.5641 116.128 39.8708 115.995 39.2628 115.728C38.6548 115.461 38.1748 115.099 37.8228 114.64C37.4708 114.171 37.2734 113.648 37.2308 113.072H39.9348C39.9668 113.381 40.1108 113.632 40.3668 113.824C40.6228 114.016 40.9374 114.112 41.3108 114.112C41.6521 114.112 41.9134 114.048 42.0948 113.92C42.2868 113.781 42.3828 113.605 42.3828 113.392C42.3828 113.136 42.2494 112.949 41.9828 112.832C41.7161 112.704 41.2841 112.565 40.6868 112.416C40.0468 112.267 39.5134 112.112 39.0868 111.952C38.6601 111.781 38.2921 111.52 37.9828 111.168C37.6734 110.805 37.5188 110.32 37.5188 109.712C37.5188 109.2 37.6574 108.736 37.9348 108.32C38.2228 107.893 38.6388 107.557 39.1828 107.312C39.7374 107.067 40.3934 106.944 41.1508 106.944C42.2708 106.944 43.1508 107.221 43.7908 107.776C44.4414 108.331 44.8148 109.067 44.9108 109.984H42.3828C42.3401 109.675 42.2014 109.429 41.9668 109.248C41.7428 109.067 41.4441 108.976 41.0708 108.976C40.7508 108.976 40.5054 109.04 40.3348 109.168C40.1641 109.285 40.0788 109.451 40.0788 109.664C40.0788 109.92 40.2121 110.112 40.4788 110.24C40.7561 110.368 41.1828 110.496 41.7588 110.624C42.4201 110.795 42.9588 110.965 43.3748 111.136C43.7908 111.296 44.1534 111.563 44.4628 111.936C44.7828 112.299 44.9481 112.789 44.9588 113.408C44.9588 113.931 44.8094 114.4 44.5108 114.816C44.2228 115.221 43.8014 115.541 43.2468 115.776C42.7028 116.011 42.0681 116.128 41.3428 116.128ZM48.0086 106.144C47.5286 106.144 47.134 106.005 46.8246 105.728C46.526 105.44 46.3766 105.088 46.3766 104.672C46.3766 104.245 46.526 103.893 46.8246 103.616C47.134 103.328 47.5286 103.184 48.0086 103.184C48.478 103.184 48.862 103.328 49.1606 103.616C49.47 103.893 49.6246 104.245 49.6246 104.672C49.6246 105.088 49.47 105.44 49.1606 105.728C48.862 106.005 48.478 106.144 48.0086 106.144ZM49.3686 107.072V116H46.6326V107.072H49.3686ZM54.7434 106.944C55.3727 106.944 55.922 107.072 56.3914 107.328C56.8714 107.584 57.2394 107.92 57.4954 108.336V107.072H60.2314V115.984C60.2314 116.805 60.066 117.547 59.7354 118.208C59.4154 118.88 58.9194 119.413 58.2474 119.808C57.586 120.203 56.7594 120.4 55.7674 120.4C54.4447 120.4 53.3727 120.085 52.5514 119.456C51.73 118.837 51.2607 117.995 51.1434 116.928H53.8474C53.9327 117.269 54.1354 117.536 54.4554 117.728C54.7754 117.931 55.17 118.032 55.6394 118.032C56.2047 118.032 56.6527 117.867 56.9834 117.536C57.3247 117.216 57.4954 116.699 57.4954 115.984V114.72C57.2287 115.136 56.8607 115.477 56.3914 115.744C55.922 116 55.3727 116.128 54.7434 116.128C54.0074 116.128 53.3407 115.941 52.7434 115.568C52.146 115.184 51.6714 114.645 51.3194 113.952C50.978 113.248 50.8074 112.437 50.8074 111.52C50.8074 110.603 50.978 109.797 51.3194 109.104C51.6714 108.411 52.146 107.877 52.7434 107.504C53.3407 107.131 54.0074 106.944 54.7434 106.944ZM57.4954 111.536C57.4954 110.853 57.3034 110.315 56.9194 109.92C56.546 109.525 56.0874 109.328 55.5434 109.328C54.9994 109.328 54.5354 109.525 54.1514 109.92C53.778 110.304 53.5914 110.837 53.5914 111.52C53.5914 112.203 53.778 112.747 54.1514 113.152C54.5354 113.547 54.9994 113.744 55.5434 113.744C56.0874 113.744 56.546 113.547 56.9194 113.152C57.3034 112.757 57.4954 112.219 57.4954 111.536ZM67.6508 106.976C68.6961 106.976 69.5281 107.317 70.1468 108C70.7761 108.672 71.0908 109.6 71.0908 110.784V116H68.3708V111.152C68.3708 110.555 68.2161 110.091 67.9068 109.76C67.5974 109.429 67.1814 109.264 66.6588 109.264C66.1361 109.264 65.7201 109.429 65.4108 109.76C65.1014 110.091 64.9468 110.555 64.9468 111.152V116H62.2108V107.072H64.9468V108.256C65.2241 107.861 65.5974 107.552 66.0668 107.328C66.5361 107.093 67.0641 106.976 67.6508 106.976Z" fill="white"/>
</g>
<defs>
<filter id="filter0_d_105147_4805" x="0" y="0" width="97" height="129.4" filterUnits="userSpaceOnUse" color-interpolation-filters="sRGB">
<feFlood flood-opacity="0" result="BackgroundImageFix"/>
<feColorMatrix in="SourceAlpha" type="matrix" values="0 0 0 0 0 0 0 0 0 0 0 0 0 0 0 0 0 0 127 0" result="hardAlpha"/>
<feOffset dx="5" dy="5"/>
<feGaussianBlur stdDeviation="2"/>
<feComposite in2="hardAlpha" operator="out"/>
<feColorMatrix type="matrix" values="0 0 0 0 0 0 0 0 0 0 0 0 0 0 0 0 0 0 0.25 0"/>
<feBlend mode="normal" in2="BackgroundImageFix" result="effect1_dropShadow_105147_4805"/>
<feBlend mode="normal" in="SourceGraphic" in2="effect1_dropShadow_105147_4805" result="shape"/>
</filter>
<clipPath id="clip0_105147_4805">
<rect width="60" height="60" fill="white" transform="translate(14 12)"/>
</clipPath>
</defs>
</svg>
