<svg width="91" height="113" viewBox="0 0 91 113" fill="none" xmlns="http://www.w3.org/2000/svg">
<g filter="url(#filter0_d_105147_4811)">
<path d="M37.2256 66.8917C33.1823 65.7545 29.6263 63.6607 26.5216 60.7365C25.5469 61.0794 24.5541 61.4224 23.5433 61.7473C23.074 61.8917 22.6046 61.8375 22.1173 61.657C21.2509 61.3321 20.7274 60.7004 20.3483 59.9242C19.8249 58.8953 19.157 57.9567 18.6335 56.9278C18.1642 55.9711 17.4783 55.1408 17.0812 54.148C16.8826 53.6607 16.3592 53.3357 16.3592 52.722C15.8898 51.9639 16.3411 51.296 16.6119 50.6282C16.6841 50.4477 16.7743 50.213 16.9368 50.1408C17.5866 49.852 17.9115 49.2022 18.453 48.8051C18.7057 48.6245 18.9765 48.426 19.2653 48.2094C18.8501 46.1336 18.4891 44.0578 18.4891 41.9278C18.4891 39.8159 18.8682 37.7762 19.2653 35.7545C18.5613 35.1047 17.9115 34.4729 17.2256 33.8773C16.5216 33.2635 16.1065 32.5054 16.1967 31.7112C16.2509 31.278 16.3772 30.8087 16.5938 30.4477C17.2617 29.3827 17.8754 28.2635 18.5252 27.1805C19.0487 26.3141 19.5 25.4116 20.0776 24.5632C20.3844 24.13 20.5649 23.6245 20.8718 23.1733C21.4675 22.3249 22.6588 21.9097 23.6335 22.1986C24.5 22.4513 25.3122 22.8303 26.1967 22.9928C26.287 23.0108 26.3592 23.1372 26.4494 23.2274C29.5722 20.3213 33.1281 18.2455 37.2075 17.0361C37.37 16.5487 37.4061 16.0253 37.6046 15.5199C37.7491 15.1408 37.713 14.6715 37.7852 14.2563C37.9837 13.1733 38.6516 12.5415 39.6083 12.2166C39.9512 12.1083 40.2942 12 40.7093 12C43.2364 12.0361 45.7635 12.0361 48.2906 12C49.0126 12 49.6263 12.2888 50.2039 12.6137C50.7274 12.8845 51.0162 13.4621 51.1606 14.0036C51.4133 14.9964 51.5577 16.0072 51.7563 17.0542C55.8176 18.2094 59.3736 20.2852 62.4783 23.2094C63.453 22.8664 64.4458 22.5235 65.4566 22.1986C65.926 22.0542 66.3953 22.1083 66.8826 22.2888C67.7491 22.6137 68.2725 23.2455 68.6516 24.0217C69.175 25.0505 69.8429 25.9892 70.3664 27.0181C70.8357 27.9747 71.5216 28.8051 71.9187 29.7978C72.1173 30.2852 72.6408 30.6101 72.6408 31.2238C73.1101 31.982 72.6588 32.6498 72.388 33.3177C72.3158 33.4982 72.2256 33.7329 72.0631 33.8051C71.4133 34.0939 71.0884 34.7437 70.5469 35.1408C70.2942 35.3213 70.0234 35.5199 69.7346 35.7365C70.1498 37.8123 70.5108 39.8881 70.5108 42.018C70.5108 44.13 70.1859 46.1697 69.7346 48.1913C70.4386 48.8412 71.0884 49.4729 71.7743 50.0686C72.4783 50.6823 72.8935 51.4404 72.8032 52.2347C72.7491 52.6679 72.6408 53.1372 72.4061 53.4982C71.7563 54.5451 71.1426 55.6282 70.5108 56.6931C69.7166 58.0108 69.0667 59.4368 68.1462 60.6823C67.9837 61.3682 67.3339 61.4224 66.8646 61.6751C66.3592 61.9458 65.8537 61.8736 65.2942 61.7112C64.4639 61.4765 63.6696 61.0614 62.8032 60.9531C62.713 60.935 62.6408 60.8087 62.5505 60.7184C59.4278 63.6607 55.8899 65.7545 51.7563 66.9278C51.5577 67.9025 51.3772 68.9134 51.1606 69.9061C50.944 70.8809 50.2942 71.4946 49.3736 71.7834C49.0306 71.8917 48.6696 72 48.2725 72C45.7454 71.9639 43.2184 71.9639 40.6913 72C39.9693 72 39.3556 71.7112 38.7779 71.3863C38.2545 71.1155 37.9476 70.5379 37.8393 69.9964C37.6407 68.9314 37.4422 67.9386 37.2256 66.8917ZM38.3989 50.9892C38.7599 50.7906 39.175 50.6643 39.1931 50.231C39.2292 49.5812 39.3195 48.9134 39.175 48.2996C38.9223 47.2527 38.4711 46.2419 38.2003 45.1949C38.0198 44.5271 37.6227 43.8953 37.6407 43.1733C37.0631 41.7473 36.7021 40.2491 36.2148 38.8051C35.8176 37.6137 35.5288 36.3863 35.0956 35.213C34.861 34.5632 34.8068 33.8412 34.3736 33.2635C34.3375 33.2094 34.3195 33.1733 34.3195 33.1733C33.8321 32.8484 33.3267 32.9567 32.8935 32.9567C32.6408 33.1913 32.4241 33.3899 32.2256 33.5704C32.2075 34.148 31.7924 34.5993 31.8646 35.1588C31.2328 36.5668 30.962 38.083 30.4386 39.5271C30.1678 40.2671 30.0054 41.0253 29.7888 41.7834C29.5902 42.5415 29.157 43.2274 29.157 44.0397C28.4711 45.574 28.1281 47.2166 27.6227 48.8231C27.4963 49.2202 27.4241 49.5993 27.6769 49.9783C27.7491 50.0866 27.713 50.2491 27.713 50.231C28.0018 50.5379 28.2184 50.7545 28.3989 50.9711C28.7418 50.9711 29.1028 50.9711 29.4819 50.9711C29.7346 50.6462 29.9873 50.3394 30.222 50.0325C30.1678 49.0036 30.3844 48.3177 30.8537 47.2166C32.6227 47.2166 34.3917 47.2166 36.1606 47.2166C36.305 47.7942 36.3772 48.3538 36.5758 48.8773C36.666 49.0939 36.7563 49.3105 36.7202 49.5271C36.666 50.1949 36.8826 50.7184 37.6407 50.9711C37.8213 50.9892 38.092 50.9892 38.3989 50.9892ZM42.6227 50.9892C43.1101 50.9531 43.6696 51.0975 44.0667 50.7004C44.2111 50.5199 44.3375 50.3394 44.518 50.0866C44.518 48.2816 44.518 46.3863 44.518 44.491C45.8357 44.491 47.1353 44.4368 48.4169 44.509C49.1931 44.5451 49.8249 44.3105 50.4386 43.9314C50.7274 43.7509 50.9801 43.4801 51.2328 43.2274C51.9007 42.5776 52.2256 41.7834 52.2436 40.8448C52.2436 39.3646 52.2436 37.9025 52.2436 36.4224C52.2436 36.2058 52.1895 35.9711 52.1353 35.7545C51.9368 34.9783 51.5216 34.4007 50.962 33.8953C50.3122 33.2996 49.5541 32.9386 48.6516 32.9386C46.6299 32.9386 44.6263 32.9386 42.5866 32.9386C42.388 33.1552 42.1895 33.3718 41.9548 33.5884C41.9548 39.148 41.9548 44.7437 41.9548 50.3574C42.1895 50.556 42.4061 50.7726 42.6227 50.9892ZM55.6191 50.9892C56.8646 50.9892 58.1281 50.9892 59.3736 50.9892C59.5902 50.7726 59.8068 50.556 60.0234 50.3574C60.0234 50.0144 60.0234 49.6895 60.0234 49.3466C60.0234 49.3105 60.0234 49.2924 60.0234 49.2744C59.7527 48.769 59.3375 48.4621 58.796 48.4079C58.796 44.0939 58.796 39.7978 58.796 35.5921C59.1931 35.3935 59.5361 35.213 59.9332 34.9964C59.9873 34.5271 60.0234 34.0397 60.0595 33.6968C59.7707 33.3718 59.5722 33.1372 59.4097 32.9567C58.1101 32.9567 56.8465 32.9567 55.7274 32.9567C55.4205 33.2274 55.2039 33.426 54.9332 33.6787C54.9873 34.1119 55.0595 34.5993 55.1137 35.0144C55.5469 35.231 55.8898 35.4116 56.1967 35.574C56.1967 39.87 56.1967 44.1661 56.1967 48.426C56.0162 48.4621 55.8176 48.426 55.7454 48.5162C55.4927 48.769 55.0595 48.8412 54.9693 49.2563C54.9693 49.6173 54.9693 49.9783 54.9693 50.3394C55.1859 50.556 55.4025 50.7726 55.6191 50.9892Z" fill="white"/>
<path d="M35.204 44.4546C34.139 44.4907 33.0198 44.5088 31.9007 44.5449C31.8646 44.5449 31.8105 44.6171 31.7021 44.7073C31.7202 43.5882 32.352 42.6857 32.4242 41.6568C32.9657 40.7543 33.0198 39.6893 33.3808 38.6785C33.4892 38.7868 33.6516 38.8951 33.6516 38.9853C33.6697 39.7615 34.1209 40.4294 34.2653 41.1694C34.3736 41.6749 34.6624 42.1622 34.7346 42.6676C34.8068 43.3175 35.2401 43.8048 35.204 44.4546Z" fill="white"/>
<path d="M49.7347 40.9534C49.6083 41.1519 49.5 41.3505 49.3556 41.531C49.1029 41.8198 48.778 41.9823 48.3628 41.9642C47.0993 41.9462 45.8358 41.9642 44.5361 41.9642C44.5361 39.8162 44.5361 37.6682 44.5361 35.466C45.8538 35.466 47.2076 35.448 48.5434 35.466C49.1751 35.4841 49.7166 36.1339 49.7347 36.8198C49.7347 37.957 49.7347 39.0942 49.7347 40.2314C49.7347 40.4841 49.7347 40.7187 49.7347 40.9534Z" fill="white"/>
<path d="M15.0325 97L12.6965 92.76H12.0405V97H9.3045V85.768H13.8965C14.7818 85.768 15.5338 85.9227 16.1525 86.232C16.7818 86.5413 17.2512 86.968 17.5605 87.512C17.8698 88.0453 18.0245 88.6427 18.0245 89.304C18.0245 90.0507 17.8112 90.7173 17.3845 91.304C16.9685 91.8907 16.3498 92.3067 15.5285 92.552L18.1205 97H15.0325ZM12.0405 90.824H13.7365C14.2378 90.824 14.6112 90.7013 14.8565 90.456C15.1125 90.2107 15.2405 89.864 15.2405 89.416C15.2405 88.9893 15.1125 88.6533 14.8565 88.408C14.6112 88.1627 14.2378 88.04 13.7365 88.04H12.0405V90.824ZM28.158 92.392C28.158 92.648 28.142 92.9147 28.11 93.192H21.918C21.9607 93.7467 22.1367 94.1733 22.446 94.472C22.766 94.76 23.1553 94.904 23.614 94.904C24.2967 94.904 24.7713 94.616 25.038 94.04H27.95C27.8007 94.6267 27.5287 95.1547 27.134 95.624C26.75 96.0933 26.2647 96.4613 25.678 96.728C25.0913 96.9947 24.4353 97.128 23.71 97.128C22.8353 97.128 22.0567 96.9413 21.374 96.568C20.6913 96.1947 20.158 95.6613 19.774 94.968C19.39 94.2747 19.198 93.464 19.198 92.536C19.198 91.608 19.3847 90.7973 19.758 90.104C20.142 89.4107 20.6753 88.8773 21.358 88.504C22.0407 88.1307 22.8247 87.944 23.71 87.944C24.574 87.944 25.342 88.1253 26.014 88.488C26.686 88.8507 27.2087 89.368 27.582 90.04C27.966 90.712 28.158 91.496 28.158 92.392ZM25.358 91.672C25.358 91.2027 25.198 90.8293 24.878 90.552C24.558 90.2747 24.158 90.136 23.678 90.136C23.2193 90.136 22.83 90.2693 22.51 90.536C22.2007 90.8027 22.0087 91.1813 21.934 91.672H25.358ZM33.2334 97.128C32.4547 97.128 31.7614 96.9947 31.1534 96.728C30.5454 96.4613 30.0654 96.0987 29.7134 95.64C29.3614 95.1707 29.164 94.648 29.1214 94.072H31.8254C31.8574 94.3813 32.0014 94.632 32.2574 94.824C32.5134 95.016 32.828 95.112 33.2014 95.112C33.5427 95.112 33.804 95.048 33.9854 94.92C34.1774 94.7813 34.2734 94.6053 34.2734 94.392C34.2734 94.136 34.14 93.9493 33.8734 93.832C33.6067 93.704 33.1747 93.5653 32.5774 93.416C31.9374 93.2667 31.404 93.112 30.9774 92.952C30.5507 92.7813 30.1827 92.52 29.8734 92.168C29.564 91.8053 29.4094 91.32 29.4094 90.712C29.4094 90.2 29.548 89.736 29.8254 89.32C30.1134 88.8933 30.5294 88.5573 31.0734 88.312C31.628 88.0667 32.284 87.944 33.0414 87.944C34.1614 87.944 35.0414 88.2213 35.6814 88.776C36.332 89.3307 36.7054 90.0667 36.8014 90.984H34.2734C34.2307 90.6747 34.092 90.4293 33.8574 90.248C33.6334 90.0667 33.3347 89.976 32.9614 89.976C32.6414 89.976 32.396 90.04 32.2254 90.168C32.0547 90.2853 31.9694 90.4507 31.9694 90.664C31.9694 90.92 32.1027 91.112 32.3694 91.24C32.6467 91.368 33.0734 91.496 33.6494 91.624C34.3107 91.7947 34.8494 91.9653 35.2654 92.136C35.6814 92.296 36.044 92.5627 36.3534 92.936C36.6734 93.2987 36.8387 93.7893 36.8494 94.408C36.8494 94.9307 36.7 95.4 36.4014 95.816C36.1134 96.2213 35.692 96.5413 35.1374 96.776C34.5934 97.0107 33.9587 97.128 33.2334 97.128ZM43.4993 94.68V97H42.1073C41.1153 97 40.3419 96.76 39.7873 96.28C39.2326 95.7893 38.9553 94.9947 38.9553 93.896V90.344H37.8673V88.072H38.9553V85.896H41.6913V88.072H43.4833V90.344H41.6913V93.928C41.6913 94.1947 41.7553 94.3867 41.8833 94.504C42.0113 94.6213 42.2246 94.68 42.5233 94.68H43.4993ZM51.9033 90.248V92.52H44.8633V90.248H51.9033ZM61.2965 95.016H57.1045L56.4325 97H53.5685L57.6325 85.768H60.8005L64.8645 97H61.9685L61.2965 95.016ZM60.5925 92.904L59.2005 88.792L57.8245 92.904H60.5925ZM68.8374 89.336C69.104 88.92 69.472 88.584 69.9414 88.328C70.4107 88.072 70.96 87.944 71.5894 87.944C72.3254 87.944 72.992 88.1307 73.5894 88.504C74.1867 88.8773 74.656 89.4107 74.9974 90.104C75.3494 90.7973 75.5254 91.6027 75.5254 92.52C75.5254 93.4373 75.3494 94.248 74.9974 94.952C74.656 95.6453 74.1867 96.184 73.5894 96.568C72.992 96.9413 72.3254 97.128 71.5894 97.128C70.9707 97.128 70.4214 97 69.9414 96.744C69.472 96.488 69.104 96.1573 68.8374 95.752V101.256H66.1014V88.072H68.8374V89.336ZM72.7414 92.52C72.7414 91.8373 72.5494 91.304 72.1654 90.92C71.792 90.5253 71.328 90.328 70.7734 90.328C70.2294 90.328 69.7654 90.5253 69.3814 90.92C69.008 91.3147 68.8214 91.8533 68.8214 92.536C68.8214 93.2187 69.008 93.7573 69.3814 94.152C69.7654 94.5467 70.2294 94.744 70.7734 94.744C71.3174 94.744 71.7814 94.5467 72.1654 94.152C72.5494 93.7467 72.7414 93.2027 72.7414 92.52ZM78.3368 87.144C77.8568 87.144 77.4621 87.0053 77.1528 86.728C76.8541 86.44 76.7048 86.088 76.7048 85.672C76.7048 85.2453 76.8541 84.8933 77.1528 84.616C77.4621 84.328 77.8568 84.184 78.3368 84.184C78.8061 84.184 79.1901 84.328 79.4888 84.616C79.7981 84.8933 79.9528 85.2453 79.9528 85.672C79.9528 86.088 79.7981 86.44 79.4888 86.728C79.1901 87.0053 78.8061 87.144 78.3368 87.144ZM79.6968 88.072V97H76.9608V88.072H79.6968Z" fill="white"/>
</g>
<defs>
<filter id="filter0_d_105147_4811" x="-1" y="-1" width="101" height="113.256" filterUnits="userSpaceOnUse" color-interpolation-filters="sRGB">
<feFlood flood-opacity="0" result="BackgroundImageFix"/>
<feColorMatrix in="SourceAlpha" type="matrix" values="0 0 0 0 0 0 0 0 0 0 0 0 0 0 0 0 0 0 127 0" result="hardAlpha"/>
<feOffset dx="5" dy="5"/>
<feGaussianBlur stdDeviation="3"/>
<feComposite in2="hardAlpha" operator="out"/>
<feColorMatrix type="matrix" values="0 0 0 0 0 0 0 0 0 0 0 0 0 0 0 0 0 0 0.25 0"/>
<feBlend mode="normal" in2="BackgroundImageFix" result="effect1_dropShadow_105147_4811"/>
<feBlend mode="normal" in="SourceGraphic" in2="effect1_dropShadow_105147_4811" result="shape"/>
</filter>
</defs>
</svg>
