<svg width="101" height="113" viewBox="0 0 101 113" fill="none" xmlns="http://www.w3.org/2000/svg">
<g filter="url(#filter0_d_105147_4810)">
<path d="M75.4454 16.7519C75.0084 14.4579 73.2333 12.6008 70.9665 12.1092C70.8573 12.0819 70.7481 12.0819 70.6115 12.0546C70.5842 12.0546 70.5569 12 70.5296 11.9727H20.4431C20.4158 12 20.3885 12.0546 20.3339 12.0546C18.0671 12.437 16.1554 14.2394 15.6365 16.5335C15.6092 16.6154 15.5546 16.7246 15.5 16.8339V67.0569C15.5273 67.1115 15.5819 67.1388 15.5819 67.1934C16.1281 69.706 17.6575 71.2626 20.1427 71.8908C20.2246 71.9181 20.2792 71.9727 20.3339 72.0273H70.6115C70.6661 72 70.6934 71.9454 70.7481 71.9181C73.2333 71.3446 74.7626 69.8425 75.3908 67.3573C75.4181 67.2754 75.3908 67.1661 75.4181 67.0842C75.4181 67.0569 75.4727 67.0296 75.5 67.0023V16.9158C75.5 16.8612 75.4454 16.8339 75.4454 16.7519ZM50.3202 45.2635H50.0198C47.7531 45.2635 45.459 45.2635 43.1923 45.2635C43.0831 45.2635 42.9738 45.2635 42.8646 45.2635C42.8646 45.2908 42.8373 45.2908 42.8373 45.3182C42.8373 45.4274 42.8373 45.5366 42.8373 45.6459V66.7019H36.8564V45.2908H29.3462V40.5116H50.2929V45.2635H50.3202ZM70.475 59.5467C70.4203 60.4752 70.2838 61.3764 69.9015 62.2503C69.7922 62.5234 69.7103 62.7692 69.5737 63.0423C69.0822 64.0801 68.2629 64.8175 67.307 65.4183C66.2146 66.101 65.013 66.4834 63.7567 66.7292C62.3639 67.0023 60.9711 67.0842 59.551 67.0296C58.8682 67.0023 58.1855 67.0023 57.5027 66.9203C55.8914 66.7292 54.3075 66.3741 52.8327 65.6641C52.7508 65.6368 52.6416 65.5002 52.6416 65.4183C52.6416 63.6431 52.6416 61.868 52.6416 60.0928C52.6416 60.0655 52.6416 60.0382 52.6416 59.9836C53.0785 60.284 53.5155 60.5844 53.9524 60.8302C55.0175 61.4583 56.1919 61.8953 57.3935 62.1684C58.4313 62.4142 59.4691 62.4415 60.5068 62.3869C61.2988 62.3596 62.0908 62.1684 62.8009 61.8134C63.429 61.4857 63.9479 61.0487 64.0844 60.3113C64.221 59.6559 64.1664 59.0005 63.784 58.4269C63.2378 57.6076 62.4731 57.0888 61.6265 56.6518C60.6707 56.1875 59.7148 55.7779 58.7317 55.3409C57.2843 54.6855 55.8641 53.9754 54.6898 52.883C53.734 51.9818 53.0239 50.9167 52.6962 49.6331C52.505 48.8685 52.4504 48.1038 52.4777 47.3391C52.505 45.4547 53.1878 43.8434 54.5259 42.5052C55.6183 41.4128 56.9565 40.7574 58.4313 40.3751C59.4417 40.1293 60.4522 39.9381 61.49 39.9108C62.2274 39.9108 62.9647 39.8289 63.6748 39.8562C64.7945 39.8835 65.8869 39.9381 66.9793 40.2112C67.6894 40.4024 68.4267 40.5935 69.1368 40.7574C69.2733 40.7847 69.3279 40.8666 69.3279 41.0305C69.3279 42.7237 69.3279 44.4442 69.3279 46.1375C69.3279 46.1921 69.3279 46.2467 69.3006 46.3286C69.0822 46.1921 68.891 46.0828 68.6998 45.9736C67.8259 45.482 66.8974 45.1543 65.9415 44.9085C64.8764 44.6627 63.8113 44.4989 62.7189 44.5262C61.9816 44.5535 61.2169 44.6627 60.5341 44.9085C59.6875 45.2089 59.0048 45.7005 58.7044 46.6017C58.4586 47.3118 58.6498 47.9126 59.0867 48.4861C59.6329 49.1962 60.3703 49.6878 61.1623 50.0701C62.2274 50.589 63.3198 51.0259 64.3575 51.5175C65.5592 52.091 66.7608 52.6645 67.7713 53.5112C68.6452 54.2485 69.4372 55.0678 69.8741 56.1602C70.1199 56.8157 70.3384 57.4984 70.3384 58.2358C70.4477 58.6727 70.5023 59.1097 70.475 59.5467Z" fill="white"/>
<path d="M10.2048 85.768V87.96H7.22881V97H4.49281V87.96H1.51681V85.768H10.2048ZM20.6979 88.072L15.0979 101.24H12.1539L14.2019 96.696L10.5699 88.072H13.6259L15.6899 93.656L17.7379 88.072H20.6979ZM24.4233 89.336C24.69 88.92 25.058 88.584 25.5273 88.328C25.9966 88.072 26.546 87.944 27.1753 87.944C27.9113 87.944 28.578 88.1307 29.1753 88.504C29.7726 88.8773 30.242 89.4107 30.5833 90.104C30.9353 90.7973 31.1113 91.6027 31.1113 92.52C31.1113 93.4373 30.9353 94.248 30.5833 94.952C30.242 95.6453 29.7726 96.184 29.1753 96.568C28.578 96.9413 27.9113 97.128 27.1753 97.128C26.5566 97.128 26.0073 97 25.5273 96.744C25.058 96.488 24.69 96.1573 24.4233 95.752V101.256H21.6873V88.072H24.4233V89.336ZM28.3273 92.52C28.3273 91.8373 28.1353 91.304 27.7513 90.92C27.378 90.5253 26.914 90.328 26.3593 90.328C25.8153 90.328 25.3513 90.5253 24.9673 90.92C24.594 91.3147 24.4073 91.8533 24.4073 92.536C24.4073 93.2187 24.594 93.7573 24.9673 94.152C25.3513 94.5467 25.8153 94.744 26.3593 94.744C26.9033 94.744 27.3673 94.5467 27.7513 94.152C28.1353 93.7467 28.3273 93.2027 28.3273 92.52ZM40.9627 92.392C40.9627 92.648 40.9467 92.9147 40.9147 93.192H34.7227C34.7654 93.7467 34.9414 94.1733 35.2507 94.472C35.5707 94.76 35.96 94.904 36.4187 94.904C37.1014 94.904 37.576 94.616 37.8427 94.04H40.7547C40.6054 94.6267 40.3334 95.1547 39.9387 95.624C39.5547 96.0933 39.0694 96.4613 38.4827 96.728C37.896 96.9947 37.24 97.128 36.5147 97.128C35.64 97.128 34.8614 96.9413 34.1787 96.568C33.496 96.1947 32.9627 95.6613 32.5787 94.968C32.1947 94.2747 32.0027 93.464 32.0027 92.536C32.0027 91.608 32.1894 90.7973 32.5627 90.104C32.9467 89.4107 33.48 88.8773 34.1627 88.504C34.8454 88.1307 35.6294 87.944 36.5147 87.944C37.3787 87.944 38.1467 88.1253 38.8187 88.488C39.4907 88.8507 40.0134 89.368 40.3867 90.04C40.7707 90.712 40.9627 91.496 40.9627 92.392ZM38.1627 91.672C38.1627 91.2027 38.0027 90.8293 37.6827 90.552C37.3627 90.2747 36.9627 90.136 36.4827 90.136C36.024 90.136 35.6347 90.2693 35.3147 90.536C35.0054 90.8027 34.8134 91.1813 34.7387 91.672H38.1627ZM46.4701 97.112C45.6487 97.112 44.9127 96.9787 44.2621 96.712C43.6114 96.4453 43.0887 96.0507 42.6941 95.528C42.3101 95.0053 42.1074 94.376 42.0861 93.64H44.9981C45.0407 94.056 45.1847 94.376 45.4301 94.6C45.6754 94.8133 45.9954 94.92 46.3901 94.92C46.7954 94.92 47.1154 94.8293 47.3501 94.648C47.5847 94.456 47.7021 94.1947 47.7021 93.864C47.7021 93.5867 47.6061 93.3573 47.4141 93.176C47.2327 92.9947 47.0034 92.8453 46.7261 92.728C46.4594 92.6107 46.0754 92.4773 45.5741 92.328C44.8487 92.104 44.2567 91.88 43.7981 91.656C43.3394 91.432 42.9447 91.1013 42.6141 90.664C42.2834 90.2267 42.1181 89.656 42.1181 88.952C42.1181 87.9067 42.4967 87.0907 43.2541 86.504C44.0114 85.9067 44.9981 85.608 46.2141 85.608C47.4514 85.608 48.4487 85.9067 49.2061 86.504C49.9634 87.0907 50.3687 87.912 50.4221 88.968H47.4621C47.4407 88.6053 47.3074 88.3227 47.0621 88.12C46.8167 87.9067 46.5021 87.8 46.1181 87.8C45.7874 87.8 45.5207 87.8907 45.3181 88.072C45.1154 88.2427 45.0141 88.4933 45.0141 88.824C45.0141 89.1867 45.1847 89.4693 45.5261 89.672C45.8674 89.8747 46.4007 90.0933 47.1261 90.328C47.8514 90.5733 48.4381 90.808 48.8861 91.032C49.3447 91.256 49.7394 91.5813 50.0701 92.008C50.4007 92.4347 50.5661 92.984 50.5661 93.656C50.5661 94.296 50.4007 94.8773 50.0701 95.4C49.7501 95.9227 49.2807 96.3387 48.6621 96.648C48.0434 96.9573 47.3127 97.112 46.4701 97.112ZM51.7058 92.536C51.7058 91.608 51.8925 90.7973 52.2658 90.104C52.6498 89.4107 53.1778 88.8773 53.8498 88.504C54.5325 88.1307 55.3111 87.944 56.1858 87.944C57.3058 87.944 58.2391 88.2373 58.9858 88.824C59.7431 89.4107 60.2391 90.2373 60.4738 91.304H57.5618C57.3165 90.6213 56.8418 90.28 56.1378 90.28C55.6365 90.28 55.2365 90.4773 54.9378 90.872C54.6391 91.256 54.4898 91.8107 54.4898 92.536C54.4898 93.2613 54.6391 93.8213 54.9378 94.216C55.2365 94.6 55.6365 94.792 56.1378 94.792C56.8418 94.792 57.3165 94.4507 57.5618 93.768H60.4738C60.2391 94.8133 59.7431 95.6347 58.9858 96.232C58.2285 96.8293 57.2951 97.128 56.1858 97.128C55.3111 97.128 54.5325 96.9413 53.8498 96.568C53.1778 96.1947 52.6498 95.6613 52.2658 94.968C51.8925 94.2747 51.7058 93.464 51.7058 92.536ZM64.6733 89.56C64.9933 89.0693 65.3933 88.6853 65.8733 88.408C66.3533 88.12 66.8866 87.976 67.4733 87.976V90.872H66.7213C66.0386 90.872 65.5266 91.0213 65.1853 91.32C64.844 91.608 64.6733 92.12 64.6733 92.856V97H61.9373V88.072H64.6733V89.56ZM70.1571 87.144C69.6771 87.144 69.2824 87.0053 68.9731 86.728C68.6744 86.44 68.5251 86.088 68.5251 85.672C68.5251 85.2453 68.6744 84.8933 68.9731 84.616C69.2824 84.328 69.6771 84.184 70.1571 84.184C70.6264 84.184 71.0104 84.328 71.3091 84.616C71.6184 84.8933 71.7731 85.2453 71.7731 85.672C71.7731 86.088 71.6184 86.44 71.3091 86.728C71.0104 87.0053 70.6264 87.144 70.1571 87.144ZM71.5171 88.072V97H68.7811V88.072H71.5171ZM76.2358 89.336C76.5025 88.92 76.8705 88.584 77.3398 88.328C77.8091 88.072 78.3585 87.944 78.9878 87.944C79.7238 87.944 80.3905 88.1307 80.9878 88.504C81.5851 88.8773 82.0545 89.4107 82.3958 90.104C82.7478 90.7973 82.9238 91.6027 82.9238 92.52C82.9238 93.4373 82.7478 94.248 82.3958 94.952C82.0545 95.6453 81.5851 96.184 80.9878 96.568C80.3905 96.9413 79.7238 97.128 78.9878 97.128C78.3691 97.128 77.8198 97 77.3398 96.744C76.8705 96.488 76.5025 96.1573 76.2358 95.752V101.256H73.4998V88.072H76.2358V89.336ZM80.1398 92.52C80.1398 91.8373 79.9478 91.304 79.5638 90.92C79.1905 90.5253 78.7265 90.328 78.1718 90.328C77.6278 90.328 77.1638 90.5253 76.7798 90.92C76.4065 91.3147 76.2198 91.8533 76.2198 92.536C76.2198 93.2187 76.4065 93.7573 76.7798 94.152C77.1638 94.5467 77.6278 94.744 78.1718 94.744C78.7158 94.744 79.1798 94.5467 79.5638 94.152C79.9478 93.7467 80.1398 93.2027 80.1398 92.52ZM89.3352 94.68V97H87.9432C86.9512 97 86.1779 96.76 85.6232 96.28C85.0685 95.7893 84.7912 94.9947 84.7912 93.896V90.344H83.7032V88.072H84.7912V85.896H87.5272V88.072H89.3192V90.344H87.5272V93.928C87.5272 94.1947 87.5912 94.3867 87.7192 94.504C87.8472 94.6213 88.0605 94.68 88.3592 94.68H89.3352Z" fill="white"/>
</g>
<defs>
<filter id="filter0_d_105147_4810" x="0" y="-1" width="101" height="113.256" filterUnits="userSpaceOnUse" color-interpolation-filters="sRGB">
<feFlood flood-opacity="0" result="BackgroundImageFix"/>
<feColorMatrix in="SourceAlpha" type="matrix" values="0 0 0 0 0 0 0 0 0 0 0 0 0 0 0 0 0 0 127 0" result="hardAlpha"/>
<feOffset dx="5" dy="5"/>
<feGaussianBlur stdDeviation="3"/>
<feComposite in2="hardAlpha" operator="out"/>
<feColorMatrix type="matrix" values="0 0 0 0 0 0 0 0 0 0 0 0 0 0 0 0 0 0 0.25 0"/>
<feBlend mode="normal" in2="BackgroundImageFix" result="effect1_dropShadow_105147_4810"/>
<feBlend mode="normal" in="SourceGraphic" in2="effect1_dropShadow_105147_4810" result="shape"/>
</filter>
</defs>
</svg>
