<svg width="32" height="32" viewBox="0 0 32 32" fill="none" xmlns="http://www.w3.org/2000/svg">
<mask id="mask0_132980_1269" style="mask-type:alpha" maskUnits="userSpaceOnUse" x="0" y="0" width="32" height="32">
<rect width="32" height="32" fill="#D9D9D9"/>
</mask>
<g mask="url(#mask0_132980_1269)">
<path d="M10.4332 17.3332L16.9666 23.8666C17.2332 24.1332 17.361 24.4443 17.3499 24.7999C17.3388 25.1555 17.1999 25.4666 16.9332 25.7332C16.6666 25.9777 16.3555 26.1055 15.9999 26.1166C15.6443 26.1277 15.3332 25.9999 15.0666 25.7332L6.26657 16.9332C6.13324 16.7999 6.03879 16.6555 5.98324 16.4999C5.92768 16.3443 5.8999 16.1777 5.8999 15.9999C5.8999 15.8221 5.92768 15.6555 5.98324 15.4999C6.03879 15.3443 6.13324 15.1999 6.26657 15.0666L15.0666 6.26657C15.311 6.02212 15.6166 5.8999 15.9832 5.8999C16.3499 5.8999 16.6666 6.02212 16.9332 6.26657C17.1999 6.53324 17.3332 6.8499 17.3332 7.21657C17.3332 7.58324 17.1999 7.8999 16.9332 8.16657L10.4332 14.6666H25.3332C25.711 14.6666 26.0277 14.7943 26.2832 15.0499C26.5388 15.3055 26.6666 15.6221 26.6666 15.9999C26.6666 16.3777 26.5388 16.6943 26.2832 16.9499C26.0277 17.2055 25.711 17.3332 25.3332 17.3332H10.4332Z" fill="#9747FF"/>
</g>
</svg>
