<svg width="32" height="32" viewBox="0 0 32 32" fill="none" xmlns="http://www.w3.org/2000/svg">
<mask id="mask0_132980_1276" style="mask-type:alpha" maskUnits="userSpaceOnUse" x="0" y="0" width="32" height="32">
<rect width="32" height="32" fill="#D9D9D9"/>
</mask>
<g mask="url(#mask0_132980_1276)">
<path d="M21.5666 17.3332H6.66659C6.28881 17.3332 5.97214 17.2055 5.71659 16.9499C5.46103 16.6943 5.33325 16.3777 5.33325 15.9999C5.33325 15.6221 5.46103 15.3055 5.71659 15.0499C5.97214 14.7943 6.28881 14.6666 6.66659 14.6666H21.5666L15.0333 8.13323C14.7666 7.86657 14.6388 7.55546 14.6499 7.1999C14.661 6.84435 14.7999 6.53324 15.0666 6.26657C15.3333 6.02212 15.6444 5.89435 15.9999 5.88324C16.3555 5.87212 16.6666 5.9999 16.9333 6.26657L25.7333 15.0666C25.8666 15.1999 25.961 15.3443 26.0166 15.4999C26.0721 15.6555 26.0999 15.8221 26.0999 15.9999C26.0999 16.1777 26.0721 16.3443 26.0166 16.4999C25.961 16.6555 25.8666 16.7999 25.7333 16.9332L16.9333 25.7332C16.6888 25.9777 16.3833 26.0999 16.0166 26.0999C15.6499 26.0999 15.3333 25.9777 15.0666 25.7332C14.7999 25.4666 14.6666 25.1499 14.6666 24.7832C14.6666 24.4166 14.7999 24.0999 15.0666 23.8332L21.5666 17.3332Z" fill="#9747FF"/>
</g>
</svg>
